{
 "cells": [
  {
   "cell_type": "markdown",
   "id": "2a77a487-dd23-4679-98a5-e3b65f4823fa",
   "metadata": {},
   "source": [
    "En primer lugar instalamos y cargamos las librerías necesarias."
   ]
  },
  {
   "cell_type": "code",
   "execution_count": 28,
   "id": "390ac60e-46e0-4251-bff9-8f12ad2605f4",
   "metadata": {},
   "outputs": [
    {
     "name": "stderr",
     "output_type": "stream",
     "text": [
      "[nltk_data] Downloading package punkt to /home/joheras/nltk_data...\n",
      "[nltk_data]   Package punkt is already up-to-date!\n",
      "[nltk_data] Downloading package stopwords to\n",
      "[nltk_data]     /home/joheras/nltk_data...\n",
      "[nltk_data]   Package stopwords is already up-to-date!\n"
     ]
    }
   ],
   "source": [
    "from pytube import YouTube #Para descargar los videos\n",
    "from pydub import AudioSegment\n",
    "import pydub #Para trabajar con el audio\n",
    "\n",
    "import os\n",
    "import os.path as osp\n",
    "from mlxtend.file_io import find_files\n",
    "from mlxtend.utils import Counter\n",
    "\n",
    "import re #Para la parte de normalizar\n",
    "import string \n",
    "import nltk\n",
    "nltk.download('punkt')\n",
    "nltk.download('stopwords')\n",
    "from nltk.tokenize import word_tokenize\n",
    "from autocorrect import Speller #Para los errores ortográficos\n",
    "spell = Speller(lang='es')\n",
    "from jiwer import wer #Para la métrica\n",
    "\n",
    "import time # Para medir los tiempos"
   ]
  },
  {
   "cell_type": "markdown",
   "id": "7517a9fa-bc07-4b77-b635-d64bc411c2ca",
   "metadata": {},
   "source": [
    "Creamos las funciones necesarias para la transcripción y la normalización."
   ]
  },
  {
   "cell_type": "code",
   "execution_count": 29,
   "id": "88431da2-d78d-45e0-9365-593e6ec94c11",
   "metadata": {},
   "outputs": [],
   "source": [
    "def cargarVideo(video, model):     # Descargamos el video\n",
    "    video.streams.filter(only_audio=True)\n",
    "    audio = video.streams.get_by_itag(22)\n",
    "    mp4 = audio.download()\n",
    "    a = mp4.split('/')\n",
    "    titulo = a[-1]\n",
    "    os.rename(titulo, 'video_' + str(model) + '.mp4')\n",
    "    cont = 'video_' +str(model)\n",
    "    return cont"
   ]
  },
  {
   "cell_type": "code",
   "execution_count": 30,
   "id": "1f13ad42-dd4c-4fdd-a901-4506e1e99ad6",
   "metadata": {},
   "outputs": [],
   "source": [
    "def transcribir(cont, model, device):     # Aplicamos el modelo que se encarga de transcribir el audio\n",
    "    audio_outdir = \"./extracted_audio\"\n",
    "    subtitle_outdir = \"./generated_subtitles\"\n",
    "    vid = cont + '.mp4'\n",
    "    base, ext = osp.splitext(vid)\n",
    "    aac_file_out = osp.join(audio_outdir, osp.basename(base)) + \".aac\"\n",
    "    os.system(f\"ffmpeg -i {vid} -vn -acodec copy {aac_file_out} \")\n",
    "    os.system(f\"whisper {aac_file_out} --model {model} --language Spanish --output_dir {subtitle_outdir} --verbose False --device cuda:{device}\")\n",
    "    f = open('./generated_subtitles/' + str(cont) + '.aac.txt','r')\n",
    "    trans = f.read()\n",
    "    return trans"
   ]
  },
  {
   "cell_type": "code",
   "execution_count": 31,
   "id": "33ea3ab5-c9f6-4652-b22e-5b2819b557a9",
   "metadata": {},
   "outputs": [],
   "source": [
    "def numero_to_letras(numero):\n",
    "\tindicador = [(\"\",\"\"),(\"mil\",\"mil\"),(\"millon\",\"millones\"),(\"mil\",\"mil\"),(\"billon\",\"billones\")]\n",
    "\tentero = int(numero)\n",
    "\tdecimal = int(round((numero - entero)*100))\n",
    "\t#print 'decimal : ',decimal \n",
    "\tcontador = 0\n",
    "\tnumero_letras = \"\"\n",
    "\twhile entero >0:\n",
    "\t\ta = entero % 1000\n",
    "\t\tif contador == 0:\n",
    "\t\t\ten_letras = convierte_cifra(a,1).strip()\n",
    "\t\telse :\n",
    "\t\t\ten_letras = convierte_cifra(a,0).strip()\n",
    "\t\tif a==0:\n",
    "\t\t\tnumero_letras = en_letras+\" \"+numero_letras\n",
    "\t\telif a==1:\n",
    "\t\t\tif contador in (1,3):\n",
    "\t\t\t\tnumero_letras = indicador[contador][0]+\" \"+numero_letras\n",
    "\t\t\telse:\n",
    "\t\t\t\tnumero_letras = en_letras+\" \"+indicador[contador][0]+\" \"+numero_letras\n",
    "\t\telse:\n",
    "\t\t\tnumero_letras = en_letras+\" \"+indicador[contador][1]+\" \"+numero_letras\n",
    "\t\tnumero_letras = numero_letras.strip()\n",
    "\t\tcontador = contador + 1\n",
    "\t\tentero = int(entero / 1000)\n",
    "\t\n",
    "\tif decimal == 0:\n",
    "\t\tnumero_letras = numero_letras\n",
    "\telse:\n",
    "\t\tnumero_letras = numero_letras+\" con \" + str(decimal) +\"/100\"\n",
    "\t#print('numero: ',numero)\n",
    "\t#print(numero_letras)\n",
    "\treturn numero_letras\n",
    " \n",
    " \n",
    "def convierte_cifra(numero,sw):\n",
    "\tlista_centana = [\"\",(\"cien\",\"ciento\"),\"doscientos\",\"trescientos\",\"cuatrocientos\",\"quinientos\",\"seiscientos\",\"setecientos\",\"ochocientos\",\"novecientos\"]\n",
    "\tlista_decena = [\"\",(\"diez\",\"once\",\"doce\",\"trece\",\"catorce\",\"quince\",\"dieciseis\",\"diecisiete\",\"dieciocho\",\"diecinueve\"),\n",
    "\t\t\t\t\t(\"veinte\",\"veinti\"),(\"treinta\",\"treinta y \"),(\"cuarenta\" , \"cuarenta y \"),\n",
    "\t\t\t\t\t(\"cincuenta\" , \"cincuenta y \"),(\"sesenta\" , \"sesenta y \"),\n",
    "\t\t\t\t\t(\"setenta\" , \"setenta y \"),(\"ochenta\" , \"ochenta y \"),\n",
    "\t\t\t\t\t(\"noventa\" , \"noventa y \")\n",
    "\t\t\t\t]\n",
    "\tlista_unidad = [\"\",(\"un\" , \"uno\"),\"dos\",\"tres\",\"cuatro\",\"cinco\",\"seis\",\"siete\",\"ocho\",\"nueve\"]\n",
    "\tcentena = int (numero / 100)\n",
    "\tdecena = int((numero -(centena * 100))/10)\n",
    "\tunidad = int(numero - (centena * 100 + decena * 10))\n",
    "\t#print \"centena: \",centena, \"decena: \",decena,'unidad: ',unidad\n",
    " \n",
    "\ttexto_centena = \"\"\n",
    "\ttexto_decena = \"\"\n",
    "\ttexto_unidad = \"\"\n",
    " \n",
    "\t#Validad las centenas\n",
    "\ttexto_centena = lista_centana[centena]\n",
    "\tif centena == 1:\n",
    "\t\tif (decena + unidad)!=0:\n",
    "\t\t\ttexto_centena = texto_centena[1]\n",
    "\t\telse :\n",
    "\t \t\ttexto_centena = texto_centena[0]\n",
    " \n",
    "\t#Valida las decenas\n",
    "\ttexto_decena = lista_decena[decena]\n",
    "\tif decena == 1 :\n",
    "\t\ttexto_decena = texto_decena[unidad]\n",
    "\telif decena > 1 :\n",
    "\t\tif unidad != 0 :\n",
    "\t\t\ttexto_decena = texto_decena[1]\n",
    "\t\telse:\n",
    "\t\t\ttexto_decena = texto_decena[0]\n",
    " \t#Validar las unidades\n",
    " \t#print \"texto_unidad: \",texto_unidad\n",
    "\tif decena != 1:\n",
    " \t\ttexto_unidad = lista_unidad[unidad]\n",
    " \t\tif unidad == 1:\n",
    " \t\t\ttexto_unidad = texto_unidad[sw]\n",
    "\treturn \"%s %s %s\" %(texto_centena,texto_decena,texto_unidad)"
   ]
  },
  {
   "cell_type": "code",
   "execution_count": 32,
   "id": "47bbc605-f8e8-4680-adc2-762e83ef67a2",
   "metadata": {},
   "outputs": [],
   "source": [
    "def normalizar(texto):    # La función que se encarga de normalizar el texto\n",
    "    #print(texto)\n",
    "    tokens=word_tokenize(texto) #Separa el texto por palabras\n",
    "    #print(tokens)\n",
    "    texto = [w.lower() for w in tokens] #Pasamos las palabras a minúsculas\n",
    "    #print(texto)\n",
    "    texto = [texto[i].replace(' apdo.', ' apartado').replace(' art. ',' articulo ').replace(' atte.',' atentamente').replace(' avda.',' avenida').replace(' cap.',' capítulo').replace(' cía.',' compañía').replace(' coord.',' coordinador').replace(' d.',' don').replace(' dña.',' doña').replace(' dcho.',' derecho').replace(' dcha.',' derecha').replace(' depto.',' departamento').replace(' dr.',' doctor').replace(' dra.',' doctora').replace(' etc.',' etcétera').replace(' fdo.',' firmado').replace(' izqdo.',' izquierdo').replace(' izqda.',' izquierda').replace(' max.',' máximo').replace(' min.',' mínimo').replace(' núm.',' número').replace(' pág.',' página').replace(' ej.',' ejemplo').replace(' prov.',' provincia').replace(' sr.',' señor').replace(' sra.',' señora').replace(' srta.',' señorita').replace(' tfno.',' teléfono') for i in range(len(texto))] #quitamos las abreviaciones\n",
    "    for i in range(len(texto)):\n",
    "        if texto[i].isdigit() and (texto[i] not in string.punctuation):\n",
    "            texto[i]=numero_to_letras(int(texto[i]))\n",
    "            tokens2=word_tokenize(texto[i])\n",
    "            for j in range(len(tokens2)-1):\n",
    "                texto.append('a') #me añado esto simplemente para no tener problemas con el rango\n",
    "            for j in range(i+1, len(texto)-3):\n",
    "                texto[len(texto)-j+i]=texto[len(texto)-j+i-len(tokens2)+1]\n",
    "            for j in range(i, i+len(tokens2)-1):\n",
    "                texto[j+len(tokens2)-1] = texto[j]\n",
    "            for j in range(i, i+len(tokens2)):\n",
    "                texto[j]=tokens2[j-i]\n",
    "    tokens=[w.lower() for w in texto] #Pasamos las palabras a minúsculas por si había números\n",
    "    re_punc = re.compile('[%s]' % re.escape(string.punctuation))\n",
    "    stripped = [re_punc.sub('',w) for w in tokens]\n",
    "    stripped=[stripped[i].replace('¿', '').replace('¡','').replace(\"'\",'') for i in range(len(tokens))] #quita los símbolos de puntuación que string.punctuation no tiene en cuenta\n",
    "    words = [word for word in stripped if word.isalpha()] #Elimina los signos de puntuación\n",
    "    return words"
   ]
  },
  {
   "cell_type": "code",
   "execution_count": 33,
   "id": "a381c8d4-201f-4d43-8682-24a5ead1011b",
   "metadata": {},
   "outputs": [],
   "source": [
    "def ortografia(texto):    # Un corrector ortográfico\n",
    "    for word in texto:\n",
    "        word = spell(word)\n",
    "    return texto"
   ]
  },
  {
   "cell_type": "code",
   "execution_count": 34,
   "id": "69cbdefc-d1ae-4608-8ef3-ddf75f2d270d",
   "metadata": {},
   "outputs": [],
   "source": [
    "def unir(texto):   # Unimos el texto pues es una lista de palabras\n",
    "    texto_norm = \"\"\n",
    "    transcripcion_norm = \"\"\n",
    "    for i in range(len(texto)):\n",
    "        texto_norm = texto_norm + ' ' + texto[i]\n",
    "    return texto_norm"
   ]
  },
  {
   "cell_type": "code",
   "execution_count": 35,
   "id": "9cd35f5f-0dfa-47bb-a586-e06427bb32f3",
   "metadata": {},
   "outputs": [],
   "source": [
    "def transcripcion(video, device, model):\n",
    "    inicio = time.time()\n",
    "    cont = cargarVideo(video, model)\n",
    "    texto = transcribir(cont, model, device)\n",
    "    norm = normalizar(texto)\n",
    "    orto = ortografia(norm)\n",
    "    trans = unir(orto)\n",
    "    fin = time.time()\n",
    "    tiempo = fin-inicio\n",
    "    return trans, tiempo"
   ]
  },
  {
   "cell_type": "code",
   "execution_count": 37,
   "id": "a6fcef28-b2f7-482b-a590-d09a3ff90b88",
   "metadata": {},
   "outputs": [
    {
     "name": "stderr",
     "output_type": "stream",
     "text": [
      "ffmpeg version 4.2.7-0ubuntu0.1 Copyright (c) 2000-2022 the FFmpeg developers\n",
      "  built with gcc 9 (Ubuntu 9.4.0-1ubuntu1~20.04.1)\n",
      "  configuration: --prefix=/usr --extra-version=0ubuntu0.1 --toolchain=hardened --libdir=/usr/lib/x86_64-linux-gnu --incdir=/usr/include/x86_64-linux-gnu --arch=amd64 --enable-gpl --disable-stripping --enable-avresample --disable-filter=resample --enable-avisynth --enable-gnutls --enable-ladspa --enable-libaom --enable-libass --enable-libbluray --enable-libbs2b --enable-libcaca --enable-libcdio --enable-libcodec2 --enable-libflite --enable-libfontconfig --enable-libfreetype --enable-libfribidi --enable-libgme --enable-libgsm --enable-libjack --enable-libmp3lame --enable-libmysofa --enable-libopenjpeg --enable-libopenmpt --enable-libopus --enable-libpulse --enable-librsvg --enable-librubberband --enable-libshine --enable-libsnappy --enable-libsoxr --enable-libspeex --enable-libssh --enable-libtheora --enable-libtwolame --enable-libvidstab --enable-libvorbis --enable-libvpx --enable-libwavpack --enable-libwebp --enable-libx265 --enable-libxml2 --enable-libxvid --enable-libzmq --enable-libzvbi --enable-lv2 --enable-omx --enable-openal --enable-opencl --enable-opengl --enable-sdl2 --enable-libdc1394 --enable-libdrm --enable-libiec61883 --enable-nvenc --enable-chromaprint --enable-frei0r --enable-libx264 --enable-shared\n",
      "  libavutil      56. 31.100 / 56. 31.100\n",
      "  libavcodec     58. 54.100 / 58. 54.100\n",
      "  libavformat    58. 29.100 / 58. 29.100\n",
      "  libavdevice    58.  8.100 / 58.  8.100\n",
      "  libavfilter     7. 57.100 /  7. 57.100\n",
      "  libavresample   4.  0.  0 /  4.  0.  0\n",
      "  libswscale      5.  5.100 /  5.  5.100\n",
      "  libswresample   3.  5.100 /  3.  5.100\n",
      "  libpostproc    55.  5.100 / 55.  5.100\n",
      "Input #0, mov,mp4,m4a,3gp,3g2,mj2, from 'video_tiny.mp4':\n",
      "  Metadata:\n",
      "    major_brand     : mp42\n",
      "    minor_version   : 0\n",
      "    compatible_brands: isommp42\n",
      "    creation_time   : 2022-11-09T12:44:50.000000Z\n",
      "  Duration: 00:07:02.05, start: 0.000000, bitrate: 954 kb/s\n",
      "    Stream #0:0(und): Video: h264 (High) (avc1 / 0x31637661), yuv420p(tv, bt709), 1280x720 [SAR 1:1 DAR 16:9], 822 kb/s, 25 fps, 25 tbr, 12800 tbn, 50 tbc (default)\n",
      "    Metadata:\n",
      "      creation_time   : 2022-11-09T12:44:50.000000Z\n",
      "      handler_name    : ISO Media file produced by Google Inc. Created on: 11/09/2022.\n",
      "    Stream #0:1(eng): Audio: aac (LC) (mp4a / 0x6134706D), 44100 Hz, stereo, fltp, 128 kb/s (default)\n",
      "    Metadata:\n",
      "      creation_time   : 2022-11-09T12:44:50.000000Z\n",
      "      handler_name    : ISO Media file produced by Google Inc. Created on: 11/09/2022.\n",
      "Output #0, adts, to './extracted_audio/video_tiny.aac':\n",
      "  Metadata:\n",
      "    major_brand     : mp42\n",
      "    minor_version   : 0\n",
      "    compatible_brands: isommp42\n",
      "    encoder         : Lavf58.29.100\n",
      "    Stream #0:0(eng): Audio: aac (LC) (mp4a / 0x6134706D), 44100 Hz, stereo, fltp, 128 kb/s (default)\n",
      "    Metadata:\n",
      "      creation_time   : 2022-11-09T12:44:50.000000Z\n",
      "      handler_name    : ISO Media file produced by Google Inc. Created on: 11/09/2022.\n",
      "Stream mapping:\n",
      "  Stream #0:1 -> #0:0 (copy)\n",
      "Press [q] to stop, [?] for help\n",
      "size=    6719kB time=00:07:02.02 bitrate= 130.4kbits/s speed=6.72e+03x    \n",
      "video:0kB audio:6595kB subtitle:0kB other streams:0kB global headers:0kB muxing overhead: 1.884027%\n"
     ]
    },
    {
     "name": "stdout",
     "output_type": "stream",
     "text": [
      "tiny 33.302489280700684\n"
     ]
    },
    {
     "name": "stderr",
     "output_type": "stream",
     "text": [
      "ffmpeg version 4.2.7-0ubuntu0.1 Copyright (c) 2000-2022 the FFmpeg developers\n",
      "  built with gcc 9 (Ubuntu 9.4.0-1ubuntu1~20.04.1)\n",
      "  configuration: --prefix=/usr --extra-version=0ubuntu0.1 --toolchain=hardened --libdir=/usr/lib/x86_64-linux-gnu --incdir=/usr/include/x86_64-linux-gnu --arch=amd64 --enable-gpl --disable-stripping --enable-avresample --disable-filter=resample --enable-avisynth --enable-gnutls --enable-ladspa --enable-libaom --enable-libass --enable-libbluray --enable-libbs2b --enable-libcaca --enable-libcdio --enable-libcodec2 --enable-libflite --enable-libfontconfig --enable-libfreetype --enable-libfribidi --enable-libgme --enable-libgsm --enable-libjack --enable-libmp3lame --enable-libmysofa --enable-libopenjpeg --enable-libopenmpt --enable-libopus --enable-libpulse --enable-librsvg --enable-librubberband --enable-libshine --enable-libsnappy --enable-libsoxr --enable-libspeex --enable-libssh --enable-libtheora --enable-libtwolame --enable-libvidstab --enable-libvorbis --enable-libvpx --enable-libwavpack --enable-libwebp --enable-libx265 --enable-libxml2 --enable-libxvid --enable-libzmq --enable-libzvbi --enable-lv2 --enable-omx --enable-openal --enable-opencl --enable-opengl --enable-sdl2 --enable-libdc1394 --enable-libdrm --enable-libiec61883 --enable-nvenc --enable-chromaprint --enable-frei0r --enable-libx264 --enable-shared\n",
      "  libavutil      56. 31.100 / 56. 31.100\n",
      "  libavcodec     58. 54.100 / 58. 54.100\n",
      "  libavformat    58. 29.100 / 58. 29.100\n",
      "  libavdevice    58.  8.100 / 58.  8.100\n",
      "  libavfilter     7. 57.100 /  7. 57.100\n",
      "  libavresample   4.  0.  0 /  4.  0.  0\n",
      "  libswscale      5.  5.100 /  5.  5.100\n",
      "  libswresample   3.  5.100 /  3.  5.100\n",
      "  libpostproc    55.  5.100 / 55.  5.100\n",
      "Input #0, mov,mp4,m4a,3gp,3g2,mj2, from 'video_base.mp4':\n",
      "  Metadata:\n",
      "    major_brand     : mp42\n",
      "    minor_version   : 0\n",
      "    compatible_brands: isommp42\n",
      "    creation_time   : 2022-11-09T12:44:50.000000Z\n",
      "  Duration: 00:07:02.05, start: 0.000000, bitrate: 954 kb/s\n",
      "    Stream #0:0(und): Video: h264 (High) (avc1 / 0x31637661), yuv420p(tv, bt709), 1280x720 [SAR 1:1 DAR 16:9], 822 kb/s, 25 fps, 25 tbr, 12800 tbn, 50 tbc (default)\n",
      "    Metadata:\n",
      "      creation_time   : 2022-11-09T12:44:50.000000Z\n",
      "      handler_name    : ISO Media file produced by Google Inc. Created on: 11/09/2022.\n",
      "    Stream #0:1(eng): Audio: aac (LC) (mp4a / 0x6134706D), 44100 Hz, stereo, fltp, 128 kb/s (default)\n",
      "    Metadata:\n",
      "      creation_time   : 2022-11-09T12:44:50.000000Z\n",
      "      handler_name    : ISO Media file produced by Google Inc. Created on: 11/09/2022.\n",
      "Output #0, adts, to './extracted_audio/video_base.aac':\n",
      "  Metadata:\n",
      "    major_brand     : mp42\n",
      "    minor_version   : 0\n",
      "    compatible_brands: isommp42\n",
      "    encoder         : Lavf58.29.100\n",
      "    Stream #0:0(eng): Audio: aac (LC) (mp4a / 0x6134706D), 44100 Hz, stereo, fltp, 128 kb/s (default)\n",
      "    Metadata:\n",
      "      creation_time   : 2022-11-09T12:44:50.000000Z\n",
      "      handler_name    : ISO Media file produced by Google Inc. Created on: 11/09/2022.\n",
      "Stream mapping:\n",
      "  Stream #0:1 -> #0:0 (copy)\n",
      "Press [q] to stop, [?] for help\n",
      "size=    6719kB time=00:07:02.02 bitrate= 130.4kbits/s speed=6.2e+03x    \n",
      "video:0kB audio:6595kB subtitle:0kB other streams:0kB global headers:0kB muxing overhead: 1.884027%\n"
     ]
    },
    {
     "name": "stdout",
     "output_type": "stream",
     "text": [
      "base 37.292317390441895\n"
     ]
    },
    {
     "name": "stderr",
     "output_type": "stream",
     "text": [
      "ffmpeg version 4.2.7-0ubuntu0.1 Copyright (c) 2000-2022 the FFmpeg developers\n",
      "  built with gcc 9 (Ubuntu 9.4.0-1ubuntu1~20.04.1)\n",
      "  configuration: --prefix=/usr --extra-version=0ubuntu0.1 --toolchain=hardened --libdir=/usr/lib/x86_64-linux-gnu --incdir=/usr/include/x86_64-linux-gnu --arch=amd64 --enable-gpl --disable-stripping --enable-avresample --disable-filter=resample --enable-avisynth --enable-gnutls --enable-ladspa --enable-libaom --enable-libass --enable-libbluray --enable-libbs2b --enable-libcaca --enable-libcdio --enable-libcodec2 --enable-libflite --enable-libfontconfig --enable-libfreetype --enable-libfribidi --enable-libgme --enable-libgsm --enable-libjack --enable-libmp3lame --enable-libmysofa --enable-libopenjpeg --enable-libopenmpt --enable-libopus --enable-libpulse --enable-librsvg --enable-librubberband --enable-libshine --enable-libsnappy --enable-libsoxr --enable-libspeex --enable-libssh --enable-libtheora --enable-libtwolame --enable-libvidstab --enable-libvorbis --enable-libvpx --enable-libwavpack --enable-libwebp --enable-libx265 --enable-libxml2 --enable-libxvid --enable-libzmq --enable-libzvbi --enable-lv2 --enable-omx --enable-openal --enable-opencl --enable-opengl --enable-sdl2 --enable-libdc1394 --enable-libdrm --enable-libiec61883 --enable-nvenc --enable-chromaprint --enable-frei0r --enable-libx264 --enable-shared\n",
      "  libavutil      56. 31.100 / 56. 31.100\n",
      "  libavcodec     58. 54.100 / 58. 54.100\n",
      "  libavformat    58. 29.100 / 58. 29.100\n",
      "  libavdevice    58.  8.100 / 58.  8.100\n",
      "  libavfilter     7. 57.100 /  7. 57.100\n",
      "  libavresample   4.  0.  0 /  4.  0.  0\n",
      "  libswscale      5.  5.100 /  5.  5.100\n",
      "  libswresample   3.  5.100 /  3.  5.100\n",
      "  libpostproc    55.  5.100 / 55.  5.100\n",
      "Input #0, mov,mp4,m4a,3gp,3g2,mj2, from 'video_small.mp4':\n",
      "  Metadata:\n",
      "    major_brand     : mp42\n",
      "    minor_version   : 0\n",
      "    compatible_brands: isommp42\n",
      "    creation_time   : 2022-11-09T12:44:50.000000Z\n",
      "  Duration: 00:07:02.05, start: 0.000000, bitrate: 954 kb/s\n",
      "    Stream #0:0(und): Video: h264 (High) (avc1 / 0x31637661), yuv420p(tv, bt709), 1280x720 [SAR 1:1 DAR 16:9], 822 kb/s, 25 fps, 25 tbr, 12800 tbn, 50 tbc (default)\n",
      "    Metadata:\n",
      "      creation_time   : 2022-11-09T12:44:50.000000Z\n",
      "      handler_name    : ISO Media file produced by Google Inc. Created on: 11/09/2022.\n",
      "    Stream #0:1(eng): Audio: aac (LC) (mp4a / 0x6134706D), 44100 Hz, stereo, fltp, 128 kb/s (default)\n",
      "    Metadata:\n",
      "      creation_time   : 2022-11-09T12:44:50.000000Z\n",
      "      handler_name    : ISO Media file produced by Google Inc. Created on: 11/09/2022.\n",
      "Output #0, adts, to './extracted_audio/video_small.aac':\n",
      "  Metadata:\n",
      "    major_brand     : mp42\n",
      "    minor_version   : 0\n",
      "    compatible_brands: isommp42\n",
      "    encoder         : Lavf58.29.100\n",
      "    Stream #0:0(eng): Audio: aac (LC) (mp4a / 0x6134706D), 44100 Hz, stereo, fltp, 128 kb/s (default)\n",
      "    Metadata:\n",
      "      creation_time   : 2022-11-09T12:44:50.000000Z\n",
      "      handler_name    : ISO Media file produced by Google Inc. Created on: 11/09/2022.\n",
      "Stream mapping:\n",
      "  Stream #0:1 -> #0:0 (copy)\n",
      "Press [q] to stop, [?] for help\n",
      "size=    6719kB time=00:07:02.02 bitrate= 130.4kbits/s speed=6.59e+03x    \n",
      "video:0kB audio:6595kB subtitle:0kB other streams:0kB global headers:0kB muxing overhead: 1.884027%\n"
     ]
    },
    {
     "name": "stdout",
     "output_type": "stream",
     "text": [
      "small 60.832688331604004\n"
     ]
    },
    {
     "name": "stderr",
     "output_type": "stream",
     "text": [
      "ffmpeg version 4.2.7-0ubuntu0.1 Copyright (c) 2000-2022 the FFmpeg developers\n",
      "  built with gcc 9 (Ubuntu 9.4.0-1ubuntu1~20.04.1)\n",
      "  configuration: --prefix=/usr --extra-version=0ubuntu0.1 --toolchain=hardened --libdir=/usr/lib/x86_64-linux-gnu --incdir=/usr/include/x86_64-linux-gnu --arch=amd64 --enable-gpl --disable-stripping --enable-avresample --disable-filter=resample --enable-avisynth --enable-gnutls --enable-ladspa --enable-libaom --enable-libass --enable-libbluray --enable-libbs2b --enable-libcaca --enable-libcdio --enable-libcodec2 --enable-libflite --enable-libfontconfig --enable-libfreetype --enable-libfribidi --enable-libgme --enable-libgsm --enable-libjack --enable-libmp3lame --enable-libmysofa --enable-libopenjpeg --enable-libopenmpt --enable-libopus --enable-libpulse --enable-librsvg --enable-librubberband --enable-libshine --enable-libsnappy --enable-libsoxr --enable-libspeex --enable-libssh --enable-libtheora --enable-libtwolame --enable-libvidstab --enable-libvorbis --enable-libvpx --enable-libwavpack --enable-libwebp --enable-libx265 --enable-libxml2 --enable-libxvid --enable-libzmq --enable-libzvbi --enable-lv2 --enable-omx --enable-openal --enable-opencl --enable-opengl --enable-sdl2 --enable-libdc1394 --enable-libdrm --enable-libiec61883 --enable-nvenc --enable-chromaprint --enable-frei0r --enable-libx264 --enable-shared\n",
      "  libavutil      56. 31.100 / 56. 31.100\n",
      "  libavcodec     58. 54.100 / 58. 54.100\n",
      "  libavformat    58. 29.100 / 58. 29.100\n",
      "  libavdevice    58.  8.100 / 58.  8.100\n",
      "  libavfilter     7. 57.100 /  7. 57.100\n",
      "  libavresample   4.  0.  0 /  4.  0.  0\n",
      "  libswscale      5.  5.100 /  5.  5.100\n",
      "  libswresample   3.  5.100 /  3.  5.100\n",
      "  libpostproc    55.  5.100 / 55.  5.100\n",
      "Input #0, mov,mp4,m4a,3gp,3g2,mj2, from 'video_medium.mp4':\n",
      "  Metadata:\n",
      "    major_brand     : mp42\n",
      "    minor_version   : 0\n",
      "    compatible_brands: isommp42\n",
      "    creation_time   : 2022-11-09T12:44:50.000000Z\n",
      "  Duration: 00:07:02.05, start: 0.000000, bitrate: 954 kb/s\n",
      "    Stream #0:0(und): Video: h264 (High) (avc1 / 0x31637661), yuv420p(tv, bt709), 1280x720 [SAR 1:1 DAR 16:9], 822 kb/s, 25 fps, 25 tbr, 12800 tbn, 50 tbc (default)\n",
      "    Metadata:\n",
      "      creation_time   : 2022-11-09T12:44:50.000000Z\n",
      "      handler_name    : ISO Media file produced by Google Inc. Created on: 11/09/2022.\n",
      "    Stream #0:1(eng): Audio: aac (LC) (mp4a / 0x6134706D), 44100 Hz, stereo, fltp, 128 kb/s (default)\n",
      "    Metadata:\n",
      "      creation_time   : 2022-11-09T12:44:50.000000Z\n",
      "      handler_name    : ISO Media file produced by Google Inc. Created on: 11/09/2022.\n",
      "Output #0, adts, to './extracted_audio/video_medium.aac':\n",
      "  Metadata:\n",
      "    major_brand     : mp42\n",
      "    minor_version   : 0\n",
      "    compatible_brands: isommp42\n",
      "    encoder         : Lavf58.29.100\n",
      "    Stream #0:0(eng): Audio: aac (LC) (mp4a / 0x6134706D), 44100 Hz, stereo, fltp, 128 kb/s (default)\n",
      "    Metadata:\n",
      "      creation_time   : 2022-11-09T12:44:50.000000Z\n",
      "      handler_name    : ISO Media file produced by Google Inc. Created on: 11/09/2022.\n",
      "Stream mapping:\n",
      "  Stream #0:1 -> #0:0 (copy)\n",
      "Press [q] to stop, [?] for help\n",
      "size=    6719kB time=00:07:02.02 bitrate= 130.4kbits/s speed=6.65e+03x    \n",
      "video:0kB audio:6595kB subtitle:0kB other streams:0kB global headers:0kB muxing overhead: 1.884027%\n"
     ]
    },
    {
     "name": "stdout",
     "output_type": "stream",
     "text": [
      "medium 106.67165493965149\n"
     ]
    },
    {
     "name": "stderr",
     "output_type": "stream",
     "text": [
      "ffmpeg version 4.2.7-0ubuntu0.1 Copyright (c) 2000-2022 the FFmpeg developers\n",
      "  built with gcc 9 (Ubuntu 9.4.0-1ubuntu1~20.04.1)\n",
      "  configuration: --prefix=/usr --extra-version=0ubuntu0.1 --toolchain=hardened --libdir=/usr/lib/x86_64-linux-gnu --incdir=/usr/include/x86_64-linux-gnu --arch=amd64 --enable-gpl --disable-stripping --enable-avresample --disable-filter=resample --enable-avisynth --enable-gnutls --enable-ladspa --enable-libaom --enable-libass --enable-libbluray --enable-libbs2b --enable-libcaca --enable-libcdio --enable-libcodec2 --enable-libflite --enable-libfontconfig --enable-libfreetype --enable-libfribidi --enable-libgme --enable-libgsm --enable-libjack --enable-libmp3lame --enable-libmysofa --enable-libopenjpeg --enable-libopenmpt --enable-libopus --enable-libpulse --enable-librsvg --enable-librubberband --enable-libshine --enable-libsnappy --enable-libsoxr --enable-libspeex --enable-libssh --enable-libtheora --enable-libtwolame --enable-libvidstab --enable-libvorbis --enable-libvpx --enable-libwavpack --enable-libwebp --enable-libx265 --enable-libxml2 --enable-libxvid --enable-libzmq --enable-libzvbi --enable-lv2 --enable-omx --enable-openal --enable-opencl --enable-opengl --enable-sdl2 --enable-libdc1394 --enable-libdrm --enable-libiec61883 --enable-nvenc --enable-chromaprint --enable-frei0r --enable-libx264 --enable-shared\n",
      "  libavutil      56. 31.100 / 56. 31.100\n",
      "  libavcodec     58. 54.100 / 58. 54.100\n",
      "  libavformat    58. 29.100 / 58. 29.100\n",
      "  libavdevice    58.  8.100 / 58.  8.100\n",
      "  libavfilter     7. 57.100 /  7. 57.100\n",
      "  libavresample   4.  0.  0 /  4.  0.  0\n",
      "  libswscale      5.  5.100 /  5.  5.100\n",
      "  libswresample   3.  5.100 /  3.  5.100\n",
      "  libpostproc    55.  5.100 / 55.  5.100\n",
      "Input #0, mov,mp4,m4a,3gp,3g2,mj2, from 'video_large.mp4':\n",
      "  Metadata:\n",
      "    major_brand     : mp42\n",
      "    minor_version   : 0\n",
      "    compatible_brands: isommp42\n",
      "    creation_time   : 2022-11-09T12:44:50.000000Z\n",
      "  Duration: 00:07:02.05, start: 0.000000, bitrate: 954 kb/s\n",
      "    Stream #0:0(und): Video: h264 (High) (avc1 / 0x31637661), yuv420p(tv, bt709), 1280x720 [SAR 1:1 DAR 16:9], 822 kb/s, 25 fps, 25 tbr, 12800 tbn, 50 tbc (default)\n",
      "    Metadata:\n",
      "      creation_time   : 2022-11-09T12:44:50.000000Z\n",
      "      handler_name    : ISO Media file produced by Google Inc. Created on: 11/09/2022.\n",
      "    Stream #0:1(eng): Audio: aac (LC) (mp4a / 0x6134706D), 44100 Hz, stereo, fltp, 128 kb/s (default)\n",
      "    Metadata:\n",
      "      creation_time   : 2022-11-09T12:44:50.000000Z\n",
      "      handler_name    : ISO Media file produced by Google Inc. Created on: 11/09/2022.\n",
      "Output #0, adts, to './extracted_audio/video_large.aac':\n",
      "  Metadata:\n",
      "    major_brand     : mp42\n",
      "    minor_version   : 0\n",
      "    compatible_brands: isommp42\n",
      "    encoder         : Lavf58.29.100\n",
      "    Stream #0:0(eng): Audio: aac (LC) (mp4a / 0x6134706D), 44100 Hz, stereo, fltp, 128 kb/s (default)\n",
      "    Metadata:\n",
      "      creation_time   : 2022-11-09T12:44:50.000000Z\n",
      "      handler_name    : ISO Media file produced by Google Inc. Created on: 11/09/2022.\n",
      "Stream mapping:\n",
      "  Stream #0:1 -> #0:0 (copy)\n",
      "Press [q] to stop, [?] for help\n",
      "size=    6719kB time=00:07:02.02 bitrate= 130.4kbits/s speed=5.25e+03x    \n",
      "video:0kB audio:6595kB subtitle:0kB other streams:0kB global headers:0kB muxing overhead: 1.884027%\n"
     ]
    },
    {
     "name": "stdout",
     "output_type": "stream",
     "text": [
      "large 167.29412174224854\n"
     ]
    }
   ],
   "source": [
    "video = YouTube('https://www.youtube.com/watch?v=YwMyCV6UzRU')\n",
    "device = 1 #gpu\n",
    "modelos = ['tiny', 'base', 'small', 'medium', 'large']\n",
    "for model in modelos:\n",
    "    texto, tiempo = transcripcion(video, device, model)\n",
    "    print(model, tiempo)"
   ]
  },
  {
   "cell_type": "code",
   "execution_count": null,
   "id": "de8a3da6-53c0-4c2d-a23e-2db1760bcf08",
   "metadata": {},
   "outputs": [],
   "source": []
  }
 ],
 "metadata": {
  "kernelspec": {
   "display_name": "Python [conda env:fastai]",
   "language": "python",
   "name": "conda-env-fastai-py"
  },
  "language_info": {
   "codemirror_mode": {
    "name": "ipython",
    "version": 3
   },
   "file_extension": ".py",
   "mimetype": "text/x-python",
   "name": "python",
   "nbconvert_exporter": "python",
   "pygments_lexer": "ipython3",
   "version": "3.10.4"
  }
 },
 "nbformat": 4,
 "nbformat_minor": 5
}
